<?xml version="1.0" encoding="utf-8"?>
<!-- Generator: Adobe Illustrator 26.0.3, SVG Export Plug-In . SVG Version: 6.00 Build 0)  -->
<svg version="1.1" id="Layer_1" xmlns="http://www.w3.org/2000/svg" xmlns:xlink="http://www.w3.org/1999/xlink" x="0px" y="0px"
	 viewBox="0 0 145.88 447.53" style="enable-background:new 0 0 145.88 447.53;" xml:space="preserve">
<style type="text/css">
	.st0{fill:#FFFFFF;}
</style>
<path class="st0" d="M84.61,405.78c8.02-8.18,16.03-16.37,24.08-24.52c4.92-4.98,9.85-9.95,14.9-14.79
	c4.8-4.61,11.19-4.79,15.22-0.64c3.79,3.91,3.64,10.45-0.76,14.89c-19.14,19.28-38.33,38.5-57.61,57.63
	c-4.75,4.71-10.65,4.42-15.52-0.43c-19-18.94-37.97-37.91-56.89-56.92c-4.54-4.56-4.83-11.32-0.9-15.26
	c4.14-4.15,10.42-3.93,15.21,0.81c11.84,11.73,23.61,23.52,35.31,35.39c1.25,1.27,1.84,3.18,2.73,4.79
	c0.68-0.48,1.37-0.95,2.05-1.43c0.09-1.72,0.25-3.45,0.25-5.17c0.02-126.5,0.02-253.01,0.02-379.51c0-1.67-0.09-3.34,0.06-5
	c0.52-5.61,4.9-9.8,10.14-9.82c5.08-0.02,9.66,4.37,10.18,9.81c0.11,1.16,0.03,2.33,0.03,3.5c0,126.5-0.01,253.01-0.01,379.51
	c0,2.13,0,4.26,0,6.39C83.61,405.27,84.11,405.52,84.61,405.78z"/>
</svg>
